<?xml version="1.0" encoding="UTF-8"?>
<svg xmlns="http://www.w3.org/2000/svg" xmlns:xlink="http://www.w3.org/1999/xlink" width="1525.33pt" height="170.5pt" viewBox="0 0 1525.33 170.5" version="1.1">
<defs>
<clipPath id="clip1">
  <path d="M 1004 58 L 1063 58 L 1063 170.5 L 1004 170.5 Z M 1004 58 "/>
</clipPath>
<clipPath id="clip2">
  <path d="M 1071 0 L 1221 0 L 1221 170.5 L 1071 170.5 Z M 1071 0 "/>
</clipPath>
<clipPath id="clip3">
  <path d="M 1376 0 L 1525.328125 0 L 1525.328125 54 L 1376 54 Z M 1376 0 "/>
</clipPath>
<clipPath id="clip4">
  <path d="M 1376 59 L 1525.328125 59 L 1525.328125 170 L 1376 170 Z M 1376 59 "/>
</clipPath>
<clipPath id="clip5">
  <path d="M 848 0 L 998 0 L 998 170.5 L 848 170.5 Z M 848 0 "/>
</clipPath>
<clipPath id="clip6">
  <path d="M 0 1 L 155 1 L 155 170.5 L 0 170.5 Z M 0 1 "/>
</clipPath>
</defs>
<g id="surface1">
<path style=" stroke:none;fill-rule:nonzero;fill:rgb(13.699341%,12.199402%,12.5%);fill-opacity:1;" d="M 162.332031 111.167969 L 221 111.167969 L 221 0.5 L 162 0.5 L 162.332031 111.167969 "/>
<path style=" stroke:none;fill-rule:nonzero;fill:rgb(13.699341%,12.199402%,12.5%);fill-opacity:1;" d="M 849 59.5 L 849 169.5 L 906.667969 169.5 L 906.667969 59.5 L 849 59.5 "/>
<path style=" stroke:none;fill-rule:nonzero;fill:rgb(13.699341%,12.199402%,12.5%);fill-opacity:1;" d="M 1004.328125 0.5 L 1004.328125 53.164063 L 1062.671875 53.164063 L 1062.671875 0.164063 L 1004.328125 0.5 "/>
<g clip-path="url(#clip1)" clip-rule="nonzero">
<path style=" stroke:none;fill-rule:nonzero;fill:rgb(13.699341%,12.199402%,12.5%);fill-opacity:1;" d="M 1004.671875 58.835938 L 1004.671875 170.164063 L 1062.671875 170.164063 L 1062.671875 59.164063 L 1004.671875 58.835938 "/>
</g>
<g clip-path="url(#clip2)" clip-rule="nonzero">
<path style=" stroke:none;fill-rule:nonzero;fill:rgb(13.699341%,12.199402%,12.5%);fill-opacity:1;" d="M 1071.328125 0.5 L 1071.328125 170.164063 L 1130 170.164063 L 1130 52.835938 L 1162.328125 52.835938 L 1162.328125 170.164063 L 1220.328125 170.164063 L 1220.328125 0.835938 L 1071.328125 0.5 "/>
</g>
<path style=" stroke:none;fill-rule:nonzero;fill:rgb(13.699341%,12.199402%,12.5%);fill-opacity:1;" d="M 1370 0.5 L 1370 53.164063 L 1285.328125 53.164063 L 1285.328125 117.164063 L 1318 117.164063 L 1318 59.164063 L 1369.671875 59.164063 L 1369.671875 169.835938 L 1226.671875 169.835938 L 1226.671875 0.835938 L 1370 0.5 "/>
<g clip-path="url(#clip3)" clip-rule="nonzero">
<path style=" stroke:none;fill-rule:nonzero;fill:rgb(13.699341%,12.199402%,12.5%);fill-opacity:1;" d="M 1376.328125 0.5 L 1376.328125 53.5 L 1525.328125 53.5 L 1525.328125 0.75 L 1376.328125 0.5 "/>
</g>
<g clip-path="url(#clip4)" clip-rule="nonzero">
<path style=" stroke:none;fill-rule:nonzero;fill:rgb(13.699341%,12.199402%,12.5%);fill-opacity:1;" d="M 1376.25 59.25 L 1525.25 59.25 L 1525.25 136.5 L 1491.878906 169.875 L 1376.5 169.875 L 1376.5 117.25 L 1460.5 117.5 L 1466 111.25 L 1376 111.25 L 1376.25 59.25 "/>
</g>
<path style=" stroke:none;fill-rule:nonzero;fill:rgb(13.699341%,12.199402%,12.5%);fill-opacity:1;" d="M 162 117 L 162 169 L 342.5 169 L 368.5 136 L 368.5 1 L 309.5 1 L 309.5 117 L 296.5 117 L 296.5 1 L 233 1 L 233 117 L 162 117 "/>
<path style=" stroke:none;fill-rule:nonzero;fill:rgb(13.699341%,12.199402%,12.5%);fill-opacity:1;" d="M 537.5 0.5 L 537.5 170 L 603 170 L 603 112 L 628.5 112 L 628.5 169.5 L 694 169.5 L 694 105.5 L 674.5 88 L 692.5 70.5 L 692.5 1.5 L 627.5 1.5 L 627.5 59 L 602 59 L 602 0.5 L 537.5 0.5 "/>
<path style=" stroke:none;fill-rule:nonzero;fill:rgb(13.699341%,12.199402%,12.5%);fill-opacity:1;" d="M 699.5 0.5 L 699.5 170 L 842 170 L 842 117.5 L 758 117.5 L 758 111.5 L 842 111.5 L 842 60 L 757.5 60 L 757.5 53 L 841.5 53 L 841.5 0 L 699.5 0.5 "/>
<g clip-path="url(#clip5)" clip-rule="nonzero">
<path style=" stroke:none;fill-rule:nonzero;fill:rgb(13.699341%,12.199402%,12.5%);fill-opacity:1;" d="M 848.5 0 L 848.5 52.5 L 939 52.5 L 939 170.5 L 997.5 170.5 L 997.5 0 L 848.5 0 "/>
</g>
<path style=" stroke:none;fill-rule:nonzero;fill:rgb(13.699341%,12.199402%,12.5%);fill-opacity:1;" d="M 472.25 65.75 L 440.25 65.75 L 455.75 46.5 L 472.25 46.5 Z M 414.5 0.5 L 376 44 L 376 169.5 L 441 169.5 L 441 111.5 L 466.5 111.5 L 466.5 170 L 531 170 L 531 0.5 L 414.5 0.5 "/>
<g clip-path="url(#clip6)" clip-rule="nonzero">
<path style=" stroke:none;fill-rule:nonzero;fill:rgb(13.699341%,12.199402%,12.5%);fill-opacity:1;" d="M 96.917969 65.75 L 64.917969 65.75 L 80.417969 46.5 L 96.917969 46.5 Z M 38.5 1 L 0 44.5 L 0 170 L 65 170 L 65 112 L 90.5 112 L 90.5 170.5 L 155 170.5 L 155 1 L 38.5 1 "/>
</g>
</g>
</svg>
